<svg id="ligne_txt_rouge" data-name="ligne txt rouge" xmlns="http://www.w3.org/2000/svg" xmlns:xlink="http://www.w3.org/1999/xlink" viewBox="0 0 600.25 600.25"><defs><radialGradient id="Dégradé_rose_simple" cx="143.48" cy="301.73" r="64.56" gradientUnits="userSpaceOnUse"><stop offset="0" stop-color="#1a0a26"/><stop offset="0.12" stop-color="#1b0a28"/><stop offset="0.17" stop-color="#1f0c2f"/><stop offset="0.18" stop-color="#220d33"/><stop offset="0.18" stop-color="#44123a"/><stop offset="0.18" stop-color="#701844"/><stop offset="0.19" stop-color="#961e4c"/><stop offset="0.19" stop-color="#b72353"/><stop offset="0.19" stop-color="#d12658"/><stop offset="0.19" stop-color="#e6295d"/><stop offset="0.2" stop-color="#f42b60"/><stop offset="0.2" stop-color="#fc2d61"/><stop offset="0.21" stop-color="#ff2d62"/><stop offset="0.23" stop-color="#fb4374"/><stop offset="0.25" stop-color="#f5638e"/><stop offset="0.29" stop-color="#f07ea4"/><stop offset="0.32" stop-color="#ec95b7"/><stop offset="0.36" stop-color="#e9a6c5"/><stop offset="0.41" stop-color="#e7b2cf"/><stop offset="0.48" stop-color="#e5b9d4"/><stop offset="0.66" stop-color="#e5bbd6"/><stop offset="1" stop-color="#e5bbd6"/></radialGradient></defs><title>Logo (Yann)</title><path d="M188.1,311c-3.1-4.5-9.92-6.87-17.23-8.08,12.33-.6,15.15-3.6,19.08-7.05,5.86-5.14,5-19.7,2.29-24.67s-14-10.16-30.84-2.46a22.71,22.71,0,0,0-8.05,6.25c.12-8.55-3.57-12.44-4.65-15.1-1.85-4.56-20.13-22.12-27.12-13.84s-7.42,25.41-3.93,34.21c1,2.41,3.44,5.14,6.52,7.82a31,31,0,0,0-7.39-1.91c-13.76-1.58-27-.44-31.46,7s8.85,19.53,13.42,22.33c3.57,2.19,11.64,4,18.9,3.21-5.19,5.1-6.12,9.17-7.16,13-2,7.3,1.54,20.39,3.89,23.24S131,356.07,143,345.51c5.64-5,6.38-14.88,5.59-24a52.72,52.72,0,0,0,9.54,19.15c3.73,5,21.7,6.85,26.55,3.85S196.38,323,188.1,311Z" fill="url(#Dégradé_rose_simple)"/><g id="txt"><path d="M481.61,303.09v17H473V279.72h11.78c5.49,0,9.2,1,11.83,3s4,4,4,8a10.79,10.79,0,0,1-2,6.35,11.93,11.93,0,0,1-5.21,4.35c6.08,9.09,9.69,16,11.54,18.67h-9.16l-9.93-17Zm0-6.49h2.77c2.11,0,5.16-.15,6.62-2s2.32-5.7.1-7.31a10,10,0,0,0-5.26-1.58c-.35,0-4.23-.15-4.23-.07Z" fill="#e12957"/><path d="M220.78,313.32h-5.72c0,1,0,1.05,0,1.68v5.21H216c1.75,0,5.27,0,10.43,0a36.74,36.74,0,0,0,5.62-.28,11.57,11.57,0,0,0,4.65-1.43,9,9,0,0,0,3.06-3,12.34,12.34,0,0,0,1.7-6.45,10.59,10.59,0,0,0-2.1-6.67q-2.1-2.73-7.77-5.43a52.78,52.78,0,0,1-5.43-2.84,5.78,5.78,0,0,1-1.67-1.63,3.64,3.64,0,0,1-.52-2,3.74,3.74,0,0,1,1.29-3,5.5,5.5,0,0,1,3.74-1.13h12.28V279.7c-.28,0-3.5,0-4.83,0-1.84,0-3.68,0-5.52.12a53.67,53.67,0,0,0-5.8.55,22,22,0,0,0-3.76.87,11.2,11.2,0,0,0-1.24.52,4.58,4.58,0,0,0-1.13.71,9.83,9.83,0,0,0-1.82,2.14,11.49,11.49,0,0,0-1.59,6.09,10.63,10.63,0,0,0,1.11,5,12.49,12.49,0,0,0,2.95,3.73,24.91,24.91,0,0,0,5.56,3.34,52.68,52.68,0,0,1,5.24,2.74,7.78,7.78,0,0,1,1.95,1.78,4,4,0,0,1-.33,4.81,4.41,4.41,0,0,1-3.13,1.24C228.52,313.34,224.42,313.33,220.78,313.32Z" fill="#e12957"/><path d="M451.94,320.13h-8.43V279.72h23.16v6H451.94v11.48h13.71v5.93H451.94Z" fill="#e12957"/><circle cx="432.84" cy="315.85" r="4.3" fill="#e12957"/><path d="M422.17,308.67H417.3v11.62H409V308.67H391.71v-5.58l17.72-23.28h7.87V303.1h4.87ZM409,303.1V289.61l-10.8,13.49Z" fill="#e12957"/><path d="M383.36,297.56c-1.87-3.09-9.64-8.25-18.5-.17a11.47,11.47,0,0,1,2.57-8.36s.16-.18.33-.35c3-2.95,10.82-3,14.81-2.83V279.7l-3.74,0c-12,0-20.32,5.66-21.61,17.65-1.74,15,4.33,22.82,15.06,22.78s13.05-9.83,13.06-13.24S385.24,300.66,383.36,297.56Zm-8.07,13.56a5.2,5.2,0,0,1-4.21,1.76c-3-.29-4.69-3.26-4.83-3.51a7.6,7.6,0,0,1-.78-5.21,5.71,5.71,0,0,1,2-3.09c.31-.26,3.39-2.7,6.58-.75a7.3,7.3,0,0,1,3.21,6A6.6,6.6,0,0,1,375.29,311.12Z" fill="#e12957"/><path d="M339.58,320.13H331V285.79H320v-6.07h30.52v6.07h-11Z" fill="#e12957"/><path d="M298.94,320.13h-8.43V279.72h23.16v6H298.94v11.48h13.71v5.93H298.94Z" fill="#e12957"/><path d="M284.14,299.94c0,6.69-.6,11.83-3.92,15.42s-8.07,4.84-14.27,4.84S255,319,251.7,315.36s-3.92-8.75-3.92-15.48.6-11.86,3.93-15.41,8-4.76,14.25-4.76,11,1.23,14.3,4.8S284.14,293.23,284.14,299.94Zm-28.44,0q0,6.76,2.58,10.2c1.71,2.28,4.27,3.43,7.68,3.43q10.26,0,10.26-13.63T266,286.28c-3.41,0-6,1.15-7.72,3.44S255.7,295.42,255.7,299.94Z" fill="#e12957"/></g></svg>