<?xml version="1.0" encoding="UTF-8" standalone="no"?>
<svg
   id="ligne_txt_rouge"
   data-name="ligne txt rouge"
   viewBox="0 0 420.52106 112.31208"
   version="1.1"
   width="420.52106"
   height="112.31208"
   xmlns="http://www.w3.org/2000/svg"
   xmlns:svg="http://www.w3.org/2000/svg"
   xmlns:rdf="http://www.w3.org/1999/02/22-rdf-syntax-ns#"
   xmlns:cc="http://creativecommons.org/ns#"
   xmlns:dc="http://purl.org/dc/elements/1.1/">
  <defs
     id="defs22">
    <radialGradient
       id="degrade_rose_simple"
       cx="143.48"
       cy="301.73001"
       r="64.559998"
       gradientUnits="userSpaceOnUse"
       gradientTransform="translate(-84.418932,-243.86171)">
      <stop
         offset="0"
         stop-color="#1a0a26"
         id="stop1" />
      <stop
         offset="0.12"
         stop-color="#1b0a28"
         id="stop2" />
      <stop
         offset="0.17"
         stop-color="#1f0c2f"
         id="stop3" />
      <stop
         offset="0.18"
         stop-color="#220d33"
         id="stop4" />
      <stop
         offset="0.18"
         stop-color="#44123a"
         id="stop5" />
      <stop
         offset="0.18"
         stop-color="#701844"
         id="stop6" />
      <stop
         offset="0.19"
         stop-color="#961e4c"
         id="stop7" />
      <stop
         offset="0.19"
         stop-color="#b72353"
         id="stop8" />
      <stop
         offset="0.19"
         stop-color="#d12658"
         id="stop9" />
      <stop
         offset="0.19"
         stop-color="#e6295d"
         id="stop10" />
      <stop
         offset="0.2"
         stop-color="#f42b60"
         id="stop11" />
      <stop
         offset="0.2"
         stop-color="#fc2d61"
         id="stop12" />
      <stop
         offset="0.21"
         stop-color="#ff2d62"
         id="stop13" />
      <stop
         offset="0.23"
         stop-color="#fb4374"
         id="stop14" />
      <stop
         offset="0.25"
         stop-color="#f5638e"
         id="stop15" />
      <stop
         offset="0.29"
         stop-color="#f07ea4"
         id="stop16" />
      <stop
         offset="0.32"
         stop-color="#ec95b7"
         id="stop17" />
      <stop
         offset="0.36"
         stop-color="#e9a6c5"
         id="stop18" />
      <stop
         offset="0.41"
         stop-color="#e7b2cf"
         id="stop19" />
      <stop
         offset="0.48"
         stop-color="#e5b9d4"
         id="stop20" />
      <stop
         offset="0.66"
         stop-color="#e5bbd6"
         id="stop21" />
      <stop
         offset="1"
         stop-color="#e5bbd6"
         id="stop22" />
    </radialGradient>
  </defs>
  <title
     id="title22">Logo (Yann)</title>
  <g
     id="g30"
     transform="matrix(0.77171806,0,0,0.77171806,47.998683,12.81941)">
    <path
       d="m 103.68107,67.138293 c -3.1,-4.5 -9.920002,-6.87 -17.230002,-8.08 12.33,-0.6 15.150002,-3.6 19.080002,-7.05 5.86,-5.14 5,-19.7 2.29,-24.67 -2.71,-4.97 -14.000002,-10.16 -30.840002,-2.46 a 22.71,22.71 0 0 0 -8.05,6.25 c 0.12,-8.55 -3.57,-12.44 -4.65,-15.1 -1.85,-4.56 -20.13,-22.12 -27.12,-13.84 -6.99,8.28 -7.42,25.41 -3.93,34.21 1,2.41 3.44,5.14 6.52,7.82 a 31,31 0 0 0 -7.39,-1.91 c -13.76,-1.58 -26.9999997,-0.44 -31.45999971,7 -4.45999999,7.44 8.85000001,19.53 13.41999971,22.33 3.57,2.19 11.64,4 18.9,3.21 -5.19,5.1 -6.12,9.17 -7.16,13 -2,7.3 1.54,20.389997 3.89,23.239997 2.35,2.85 16.63,1.12 28.63,-9.44 5.64,-4.999997 6.38,-14.879997 5.59,-23.999997 a 52.72,52.72 0 0 0 9.54,19.15 c 3.73,4.999997 21.7,6.849997 26.550002,3.849997 4.85,-2.999997 11.7,-21.509997 3.42,-33.509997 z"
       fill="url(#degrade_rose_simple)"
       id="path22"
       style="fill:url(#degrade_rose_simple)" />
    <g
       id="txt"
       transform="translate(-84.418932,-243.86171)">
      <path
         d="m 481.61,303.09 v 17 H 473 v -40.37 h 11.78 c 5.49,0 9.2,1 11.83,3 2.63,2 4,4 4,8 a 10.79,10.79 0 0 1 -2,6.35 11.93,11.93 0 0 1 -5.21,4.35 c 6.08,9.09 9.69,16 11.54,18.67 h -9.16 l -9.93,-17 z m 0,-6.49 h 2.77 c 2.11,0 5.16,-0.15 6.62,-2 1.46,-1.85 2.32,-5.7 0.1,-7.31 a 10,10 0 0 0 -5.26,-1.58 c -0.35,0 -4.23,-0.15 -4.23,-0.07 z"
         fill="#e12957"
         id="path23" />
      <path
         d="m 220.78,313.32 h -5.72 c 0,1 0,1.05 0,1.68 v 5.21 H 216 c 1.75,0 5.27,0 10.43,0 a 36.74,36.74 0 0 0 5.62,-0.28 11.57,11.57 0 0 0 4.65,-1.43 9,9 0 0 0 3.06,-3 12.34,12.34 0 0 0 1.7,-6.45 10.59,10.59 0 0 0 -2.1,-6.67 q -2.1,-2.73 -7.77,-5.43 a 52.78,52.78 0 0 1 -5.43,-2.84 5.78,5.78 0 0 1 -1.67,-1.63 3.64,3.64 0 0 1 -0.52,-2 3.74,3.74 0 0 1 1.29,-3 5.5,5.5 0 0 1 3.74,-1.13 h 12.28 v -6.65 c -0.28,0 -3.5,0 -4.83,0 -1.84,0 -3.68,0 -5.52,0.12 a 53.67,53.67 0 0 0 -5.8,0.55 22,22 0 0 0 -3.76,0.87 11.2,11.2 0 0 0 -1.24,0.52 4.58,4.58 0 0 0 -1.13,0.71 9.83,9.83 0 0 0 -1.82,2.14 11.49,11.49 0 0 0 -1.59,6.09 10.63,10.63 0 0 0 1.11,5 12.49,12.49 0 0 0 2.95,3.73 24.91,24.91 0 0 0 5.56,3.34 52.68,52.68 0 0 1 5.24,2.74 7.78,7.78 0 0 1 1.95,1.78 4,4 0 0 1 -0.33,4.81 4.41,4.41 0 0 1 -3.13,1.24 c -0.42,0 -4.52,-0.01 -8.16,-0.02 z"
         fill="#e12957"
         id="path24" />
      <path
         d="m 451.94,320.13 h -8.43 v -40.41 h 23.16 v 6 h -14.73 v 11.48 h 13.71 v 5.93 h -13.71 z"
         fill="#e12957"
         id="path25" />
      <circle
         cx="432.84"
         cy="315.85001"
         r="4.3000002"
         fill="#e12957"
         id="circle25" />
      <path
         d="m 422.17,308.67 h -4.87 v 11.62 H 409 v -11.62 h -17.29 v -5.58 l 17.72,-23.28 h 7.87 v 23.29 h 4.87 z M 409,303.1 v -13.49 l -10.8,13.49 z"
         fill="#e12957"
         id="path26" />
      <path
         d="m 383.36,297.56 c -1.87,-3.09 -9.64,-8.25 -18.5,-0.17 a 11.47,11.47 0 0 1 2.57,-8.36 c 0,0 0.16,-0.18 0.33,-0.35 3,-2.95 10.82,-3 14.81,-2.83 v -6.15 h -3.74 c -12,0 -20.32,5.66 -21.61,17.65 -1.74,15 4.33,22.82 15.06,22.78 10.73,-0.04 13.05,-9.83 13.06,-13.24 0.01,-3.41 -0.1,-6.23 -1.98,-9.33 z m -8.07,13.56 a 5.2,5.2 0 0 1 -4.21,1.76 c -3,-0.29 -4.69,-3.26 -4.83,-3.51 a 7.6,7.6 0 0 1 -0.78,-5.21 5.71,5.71 0 0 1 2,-3.09 c 0.31,-0.26 3.39,-2.7 6.58,-0.75 a 7.3,7.3 0 0 1 3.21,6 6.6,6.6 0 0 1 -1.97,4.8 z"
         fill="#e12957"
         id="path27" />
      <path
         d="M 339.58,320.13 H 331 v -34.34 h -11 v -6.07 h 30.52 v 6.07 h -11 z"
         fill="#e12957"
         id="path28" />
      <path
         d="m 298.94,320.13 h -8.43 v -40.41 h 23.16 v 6 h -14.73 v 11.48 h 13.71 v 5.93 h -13.71 z"
         fill="#e12957"
         id="path29" />
      <path
         d="m 284.14,299.94 c 0,6.69 -0.6,11.83 -3.92,15.42 -3.32,3.59 -8.07,4.84 -14.27,4.84 -6.2,0 -10.95,-1.2 -14.25,-4.84 -3.3,-3.64 -3.92,-8.75 -3.92,-15.48 0,-6.73 0.6,-11.86 3.93,-15.41 3.33,-3.55 8,-4.76 14.25,-4.76 6.25,0 11,1.23 14.3,4.8 3.3,3.57 3.88,8.72 3.88,15.43 z m -28.44,0 q 0,6.76 2.58,10.2 c 1.71,2.28 4.27,3.43 7.68,3.43 q 10.26,0 10.26,-13.63 0,-13.63 -10.22,-13.66 c -3.41,0 -6,1.15 -7.72,3.44 -1.72,2.29 -2.58,5.7 -2.58,10.22 z"
         fill="#e12957"
         id="path30" />
    </g>
  </g>
  <metadata
     id="metadata30">
    <rdf:RDF>
      <cc:Work
         rdf:about="">
        <dc:title>Logo (Yann)</dc:title>
      </cc:Work>
    </rdf:RDF>
  </metadata>
</svg>
